<svg xmlns="http://www.w3.org/2000/svg" version="1.1" xmlns:xlink="http://www.w3.org/1999/xlink" xmlns:svgjs="http://svgjs.dev/svgjs" width="1500" height="1500" viewBox="0 0 1500 1500"><rect width="1500" height="1500" fill="#ffffff"></rect><g transform="matrix(0.6666666666666666,0,0,0.6666666666666666,250,187.66666666666674)"><svg viewBox="0 0 320 360" data-background-color="#000000" preserveAspectRatio="xMidYMid meet" height="1687" width="1500" xmlns="http://www.w3.org/2000/svg" xmlns:xlink="http://www.w3.org/1999/xlink"><g id="tight-bounds" transform="matrix(1,0,0,1,0,0)"><svg viewBox="0 0 320 360" height="360" width="320"><rect width="320" height="360" fill="#000000" mask="url(#43ab061d-17f4-4055-9cb3-db08574633b1)" data-fill-palette-color="tertiary"></rect><g><svg></svg></g><g><svg viewBox="0 0 320 360" height="360" width="320"><g><path d="M160 340c88.258 0 160-71.742 160-160 0-88.258-71.742-160-160-160-88.258 0-160 71.742-160 160 0 88.258 71.742 160 160 160zM165.161 329.368v-10.323c72.671-2.684 131.2-61.213 133.884-133.884h10.323c-2.684 78.452-65.755 141.523-144.207 144.207zM165.161 30.632c78.452 2.684 141.523 65.755 144.207 144.207h-10.323c-2.684-72.671-61.213-131.2-133.884-133.884zM289.032 180c0 71.123-57.91 129.032-129.032 129.032-71.123 0-129.032-57.91-129.032-129.032 0-71.123 57.91-129.032 129.032-129.032 71.123 0 129.032 57.91 129.032 129.032zM154.839 30.632v10.323c-72.671 2.684-131.2 61.213-133.884 133.884h-10.323c2.684-78.452 65.755-141.523 144.207-144.207zM20.955 185.161c2.684 72.671 61.213 131.2 133.884 133.884v10.323c-78.452-2.684-141.523-65.755-144.207-144.207z" fill="#000000" fill-rule="nonzero" stroke="none" stroke-width="1" stroke-linecap="butt" stroke-linejoin="miter" stroke-miterlimit="10" stroke-dasharray="" stroke-dashoffset="0" font-family="none" font-weight="none" font-size="none" text-anchor="none" style="mix-blend-mode: normal" data-fill-palette-color="tertiary"></path></g><g transform="matrix(1,0,0,1,64,125.49955156950672)"><svg viewBox="0 0 192 109.00089686098656" height="109.00089686098656" width="192"><g><svg viewBox="0 0 192 109.00089686098656" height="109.00089686098656" width="192"><g><svg viewBox="0 0 192 109.00089686098656" height="109.00089686098656" width="192"><g id="textblocktransform"><svg viewBox="0 0 192 109.00089686098656" height="109.00089686098656" width="192" id="textblock"><g><svg viewBox="0 0 192 109.00089686098656" height="109.00089686098656" width="192"><g transform="matrix(1,0,0,1,0,0)"><svg width="192" viewBox="3 -32.1 55.75 31.650000000000002" height="109.00089686098656" data-palette-color="url(#cd99962e-1ce6-4173-bd4b-cf4b7ad106a4)"></svg></g></svg></g></svg></g></svg></g><g></g></svg></g></svg></g></svg></g><defs></defs><mask id="bc66f9f3-1aba-4575-ade8-7f2c8fb976ef"><g id="SvgjsG1386"><svg viewBox="0 0 320 360" height="360" width="320"><g><svg></svg></g><g><svg viewBox="0 0 320 360" height="360" width="320"><g><path d="M160 340c88.258 0 160-71.742 160-160 0-88.258-71.742-160-160-160-88.258 0-160 71.742-160 160 0 88.258 71.742 160 160 160zM165.161 329.368v-10.323c72.671-2.684 131.2-61.213 133.884-133.884h10.323c-2.684 78.452-65.755 141.523-144.207 144.207zM165.161 30.632c78.452 2.684 141.523 65.755 144.207 144.207h-10.323c-2.684-72.671-61.213-131.2-133.884-133.884zM289.032 180c0 71.123-57.91 129.032-129.032 129.032-71.123 0-129.032-57.91-129.032-129.032 0-71.123 57.91-129.032 129.032-129.032 71.123 0 129.032 57.91 129.032 129.032zM154.839 30.632v10.323c-72.671 2.684-131.2 61.213-133.884 133.884h-10.323c2.684-78.452 65.755-141.523 144.207-144.207zM20.955 185.161c2.684 72.671 61.213 131.2 133.884 133.884v10.323c-78.452-2.684-141.523-65.755-144.207-144.207z" fill="black" fill-rule="nonzero" stroke="none" stroke-width="1" stroke-linecap="butt" stroke-linejoin="miter" stroke-miterlimit="10" stroke-dasharray="" stroke-dashoffset="0" font-family="none" font-weight="none" font-size="none" text-anchor="none" style="mix-blend-mode: normal"></path></g><g transform="matrix(1,0,0,1,64,125.49955156950672)"><svg viewBox="0 0 192 109.00089686098656" height="109.00089686098656" width="192"><g><svg viewBox="0 0 192 109.00089686098656" height="109.00089686098656" width="192"><g><svg viewBox="0 0 192 109.00089686098656" height="109.00089686098656" width="192"><g id="SvgjsG1385"><svg viewBox="0 0 192 109.00089686098656" height="109.00089686098656" width="192" id="SvgjsSvg1384"><g><svg viewBox="0 0 192 109.00089686098656" height="109.00089686098656" width="192"><g transform="matrix(1,0,0,1,0,0)"><svg width="192" viewBox="3 -32.1 55.75 31.650000000000002" height="109.00089686098656" data-palette-color="url(#cd99962e-1ce6-4173-bd4b-cf4b7ad106a4)"><path d="M11-11.85L11-0.45 3-0.45 3-32.1 26.5-32.1 26.5-25.6 11-25.6 11-18.35 25.5-18.35 25.5-11.85 11-11.85ZM44.1-0.45L30.25-0.45 30.25-32.1 44.1-32.1Q48.25-32.1 51.05-31.43 53.85-30.75 55.55-29.05 57.25-27.35 58-24.33 58.75-21.3 58.75-16.55L58.75-16.55Q58.75-11.6 58-8.45 57.25-5.3 55.55-3.55 53.85-1.8 51.05-1.13 48.25-0.45 44.1-0.45L44.1-0.45ZM42.95-25.35L42.95-25.35 38.25-25.35 38.25-7.2 42.95-7.2Q45.85-7.2 47.52-7.85 49.2-8.5 49.92-10.5 50.65-12.5 50.65-16.55L50.65-16.55Q50.65-20.4 49.92-22.28 49.2-24.15 47.52-24.75 45.85-25.35 42.95-25.35Z" opacity="1" transform="matrix(1,0,0,1,0,0)" fill="white" class="wordmark-text-0" id="SvgjsPath1383"></path></svg></g></svg></g></svg></g></svg></g><g></g></svg></g></svg></g></svg></g><defs><mask></mask></defs></svg><rect width="320" height="360" fill="black" stroke="none" visibility="hidden"></rect></g></mask><linearGradient x1="0" x2="1" y1="0.578" y2="0.595" id="cd99962e-1ce6-4173-bd4b-cf4b7ad106a4"><stop stop-color="#6ee2f5" offset="0"></stop><stop stop-color="#6454f0" offset="1"></stop></linearGradient><rect width="320" height="360" fill="#000000" mask="url(#bc66f9f3-1aba-4575-ade8-7f2c8fb976ef)" data-fill-palette-color="primary"></rect><mask id="43ab061d-17f4-4055-9cb3-db08574633b1"><g id="SvgjsG1409"><svg viewBox="0 0 320 360" height="360" width="320"><g><svg></svg></g><g><svg viewBox="0 0 320 360" height="360" width="320"><g><path d="M160 340c88.258 0 160-71.742 160-160 0-88.258-71.742-160-160-160-88.258 0-160 71.742-160 160 0 88.258 71.742 160 160 160zM165.161 329.368v-10.323c72.671-2.684 131.2-61.213 133.884-133.884h10.323c-2.684 78.452-65.755 141.523-144.207 144.207zM165.161 30.632c78.452 2.684 141.523 65.755 144.207 144.207h-10.323c-2.684-72.671-61.213-131.2-133.884-133.884zM289.032 180c0 71.123-57.91 129.032-129.032 129.032-71.123 0-129.032-57.91-129.032-129.032 0-71.123 57.91-129.032 129.032-129.032 71.123 0 129.032 57.91 129.032 129.032zM154.839 30.632v10.323c-72.671 2.684-131.2 61.213-133.884 133.884h-10.323c2.684-78.452 65.755-141.523 144.207-144.207zM20.955 185.161c2.684 72.671 61.213 131.2 133.884 133.884v10.323c-78.452-2.684-141.523-65.755-144.207-144.207z" fill="white" fill-rule="nonzero" stroke="none" stroke-width="1" stroke-linecap="butt" stroke-linejoin="miter" stroke-miterlimit="10" stroke-dasharray="" stroke-dashoffset="0" font-family="none" font-weight="none" font-size="none" text-anchor="none" style="mix-blend-mode: normal"></path></g><g transform="matrix(1,0,0,1,64,125.49955156950672)"><svg viewBox="0 0 192 109.00089686098656" height="109.00089686098656" width="192"><g><svg viewBox="0 0 192 109.00089686098656" height="109.00089686098656" width="192"><g><svg viewBox="0 0 192 109.00089686098656" height="109.00089686098656" width="192"><g id="SvgjsG1408"><svg viewBox="0 0 192 109.00089686098656" height="109.00089686098656" width="192" id="SvgjsSvg1407"><g><svg viewBox="0 0 192 109.00089686098656" height="109.00089686098656" width="192"><g transform="matrix(1,0,0,1,0,0)"><svg width="192" viewBox="3 -32.1 55.75 31.650000000000002" height="109.00089686098656" data-palette-color="url(#cd99962e-1ce6-4173-bd4b-cf4b7ad106a4)"></svg></g></svg></g></svg></g></svg></g><g></g></svg></g></svg></g></svg></g><defs><mask></mask></defs><mask><g id="SvgjsG1406"><svg viewBox="0 0 320 360" height="360" width="320"><g><svg></svg></g><g><svg viewBox="0 0 320 360" height="360" width="320"><g><path d="M160 340c88.258 0 160-71.742 160-160 0-88.258-71.742-160-160-160-88.258 0-160 71.742-160 160 0 88.258 71.742 160 160 160zM165.161 329.368v-10.323c72.671-2.684 131.2-61.213 133.884-133.884h10.323c-2.684 78.452-65.755 141.523-144.207 144.207zM165.161 30.632c78.452 2.684 141.523 65.755 144.207 144.207h-10.323c-2.684-72.671-61.213-131.2-133.884-133.884zM289.032 180c0 71.123-57.91 129.032-129.032 129.032-71.123 0-129.032-57.91-129.032-129.032 0-71.123 57.91-129.032 129.032-129.032 71.123 0 129.032 57.91 129.032 129.032zM154.839 30.632v10.323c-72.671 2.684-131.2 61.213-133.884 133.884h-10.323c2.684-78.452 65.755-141.523 144.207-144.207zM20.955 185.161c2.684 72.671 61.213 131.2 133.884 133.884v10.323c-78.452-2.684-141.523-65.755-144.207-144.207z" fill="black" fill-rule="nonzero" stroke="none" stroke-width="1" stroke-linecap="butt" stroke-linejoin="miter" stroke-miterlimit="10" stroke-dasharray="" stroke-dashoffset="0" font-family="none" font-weight="none" font-size="none" text-anchor="none" style="mix-blend-mode: normal"></path></g><g transform="matrix(1,0,0,1,64,125.49955156950672)"><svg viewBox="0 0 192 109.00089686098656" height="109.00089686098656" width="192"><g><svg viewBox="0 0 192 109.00089686098656" height="109.00089686098656" width="192"><g><svg viewBox="0 0 192 109.00089686098656" height="109.00089686098656" width="192"><g id="SvgjsG1405"><svg viewBox="0 0 192 109.00089686098656" height="109.00089686098656" width="192" id="SvgjsSvg1404"><g><svg viewBox="0 0 192 109.00089686098656" height="109.00089686098656" width="192"><g transform="matrix(1,0,0,1,0,0)"><svg width="192" viewBox="3 -32.1 55.75 31.650000000000002" height="109.00089686098656" data-palette-color="url(#cd99962e-1ce6-4173-bd4b-cf4b7ad106a4)"><path d="M11-11.85L11-0.45 3-0.45 3-32.1 26.5-32.1 26.5-25.6 11-25.6 11-18.35 25.5-18.35 25.5-11.85 11-11.85ZM44.1-0.45L30.25-0.45 30.25-32.1 44.1-32.1Q48.25-32.1 51.05-31.43 53.85-30.75 55.55-29.05 57.25-27.35 58-24.33 58.75-21.3 58.75-16.55L58.75-16.55Q58.75-11.6 58-8.45 57.25-5.3 55.55-3.55 53.85-1.8 51.05-1.13 48.25-0.45 44.1-0.45L44.1-0.45ZM42.95-25.35L42.95-25.35 38.25-25.35 38.25-7.2 42.95-7.2Q45.85-7.2 47.52-7.85 49.2-8.5 49.92-10.5 50.65-12.5 50.65-16.55L50.65-16.55Q50.65-20.4 49.92-22.28 49.2-24.15 47.52-24.75 45.85-25.35 42.95-25.35Z" opacity="1" transform="matrix(1,0,0,1,0,0)" fill="black" class="wordmark-text-0" id="SvgjsPath1403"></path></svg></g></svg></g></svg></g></svg></g><g></g></svg></g></svg></g></svg></g><defs><mask></mask></defs></svg><rect width="320" height="360" fill="black" stroke="none" visibility="hidden"></rect></g></mask></svg><rect width="320" height="360" fill="black" stroke="none" visibility="hidden"></rect></g></mask><linearGradient x1="0" x2="1" y1="0.578" y2="0.595" id="660a680d-ca69-4035-aa2a-a06acedac57d"><stop stop-color="#6ee2f5" offset="0"></stop><stop stop-color="#6454f0" offset="1"></stop></linearGradient></svg><rect width="320" height="360" fill="none" stroke="none" visibility="hidden"></rect></g></svg></g></svg>